<svg id="Group_4804" data-name="Group 4804" xmlns="http://www.w3.org/2000/svg" width="149.543" height="143.223" viewBox="0 0 149.543 143.223">
  <path id="Path_1" data-name="Path 1" d="M87.359,52.2a33.422,33.422,0,1,1-33.42-34,34.829,34.829,0,0,1,16.422,4.322l-7.2,7.2a25.47,25.47,0,0,0-9.507-2.017A23.731,23.731,0,0,0,30.027,51.339c0,12.965,10.66,23.912,23.624,23.912S77.275,64.3,77.275,51.915H68.056c0,7.491-6.626,13.829-14.405,13.829A14.447,14.447,0,0,1,39.246,51.339,14.265,14.265,0,0,1,53.651,36.934a13.905,13.905,0,0,1,10.084,4.033l6.626-6.626,6.914-6.626L83.9,21.088A42.577,42.577,0,0,0,11.3,51.339,42.727,42.727,0,0,0,53.939,93.978c23.336,0,42.351-19.3,42.639-42.063H87.359Z" transform="translate(17.324 -8.7)" fill="#fff"/>
  <g id="Group_674" data-name="Group 674" transform="translate(0 116.147)">
    <g id="Group_4" data-name="Group 4" transform="translate(0 0.064)">
      <path id="Path_2" data-name="Path 2" d="M54.043,23.919a2.829,2.829,0,0,0,2.285-1.079l1.206,1.269a4.452,4.452,0,0,1-3.428,1.65,4.357,4.357,0,0,1-3.237-1.206,4.21,4.21,0,0,1-1.269-3.11,4.5,4.5,0,0,1,7.934-2.856L56.328,19.92a2.682,2.682,0,0,0-2.222-1.143,2.765,2.765,0,0,0-1.841.7,2.4,2.4,0,0,0-.762,1.9,2.81,2.81,0,0,0,.7,1.9,2.825,2.825,0,0,0,1.841.635" transform="translate(-49.6 -16.937)" fill="#fff"/>
      <path id="Path_3" data-name="Path 3" d="M70.2,25.705V17.2h1.841v6.792h3.618v1.714Z" transform="translate(-57.124 -17.01)" fill="#fff"/>
      <rect id="Rectangle_1" data-name="Rectangle 1" width="1.904" height="8.442" transform="translate(23.549 0.19)" fill="#fff"/>
      <g id="Group_1" data-name="Group 1" transform="translate(30.594 0.063)">
        <path id="Path_4" data-name="Path 4" d="M102.243,23.919a2.829,2.829,0,0,0,2.285-1.079l1.206,1.269a4.632,4.632,0,0,1-6.665.444,4.209,4.209,0,0,1-1.269-3.11,4.5,4.5,0,0,1,7.934-2.856l-1.206,1.333a2.683,2.683,0,0,0-2.222-1.143,2.765,2.765,0,0,0-1.841.7,2.4,2.4,0,0,0-.762,1.9,2.81,2.81,0,0,0,.7,1.9,3.078,3.078,0,0,0,1.841.635" transform="translate(-97.8 -17)" fill="#fff"/>
        <path id="Path_5" data-name="Path 5" d="M118.4,17.2h1.9v3.491l3.174-3.491h2.349l-3.364,3.745c.317.381.825,1.143,1.587,2.285.762,1.079,1.4,1.9,1.777,2.475H123.6l-2.475-3.364-.825.952v2.412h-1.9Z" transform="translate(-105.324 -17.073)" fill="#fff"/>
      </g>
      <path id="Path_6" data-name="Path 6" d="M249,17.3v8.442h4.951v-.7h-4.189V17.3Z" transform="translate(-122.434 -17.046)" fill="#fff"/>
      <g id="Group_2" data-name="Group 2" transform="translate(56.11 0)">
        <path id="Path_7" data-name="Path 7" d="M230.018,25.805a3.6,3.6,0,0,0,2.539-.952,3.819,3.819,0,0,0,.952-2.793V17.3h-.762V22a3.313,3.313,0,0,1-.762,2.285,2.766,2.766,0,0,1-4.062,0A3.313,3.313,0,0,1,227.162,22V17.3H226.4v4.76a3.819,3.819,0,0,0,.952,2.793,4.16,4.16,0,0,0,2.666.952" transform="translate(-170.29 -17.046)" fill="#fff"/>
        <path id="Path_8" data-name="Path 8" d="M142.507,16.9a4.166,4.166,0,0,0-3.237,1.269A3.982,3.982,0,0,0,138,21.28a3.982,3.982,0,0,0,1.269,3.11,4.306,4.306,0,0,0,3.174,1.206,4.07,4.07,0,0,0,2.983-1.206l-.444-.444a7.345,7.345,0,0,1-1.016.7,3.92,3.92,0,0,1-1.587.317,3.558,3.558,0,0,1-2.539-1.079,3.636,3.636,0,0,1-1.079-2.666,3.492,3.492,0,0,1,1.079-2.6,3.54,3.54,0,0,1,2.6-1.016,5.456,5.456,0,0,1,1.523.254,4.378,4.378,0,0,1,1.079.7l.444-.508a4.341,4.341,0,0,0-2.983-1.143" transform="translate(-138 -16.9)" fill="#fff"/>
        <path id="Path_9" data-name="Path 9" d="M211.9,25.061a2.047,2.047,0,0,0,.762-1.65,1.874,1.874,0,0,0-.571-1.523A5.184,5.184,0,0,0,210.118,21a5.924,5.924,0,0,1-1.968-.7,1.444,1.444,0,0,1-.635-1.206,1.375,1.375,0,0,1,.635-1.206,3.394,3.394,0,0,1,2.856-.063,3.878,3.878,0,0,1,.889.444l.381-.508a5.625,5.625,0,0,0-1.079-.508,4.733,4.733,0,0,0-1.65-.254,3,3,0,0,0-2.031.635,1.964,1.964,0,0,0-.762,1.65,1.851,1.851,0,0,0,.635,1.587,3.6,3.6,0,0,0,.825.508c.317.127.825.254,1.523.444a4.265,4.265,0,0,1,1.587.635A1.357,1.357,0,0,1,211.9,23.6a1.375,1.375,0,0,1-.635,1.206,2.489,2.489,0,0,1-1.46.381,4.717,4.717,0,0,1-2.856-1.079l-.444.571a5.091,5.091,0,0,0,3.3,1.143,3.919,3.919,0,0,0,2.095-.762" transform="translate(-163.021 -16.937)" fill="#fff"/>
      </g>
      <path id="Path_10" data-name="Path 10" d="M270.447,17.3H264.1v.635h2.793v7.807h.762V17.935h2.793Z" transform="translate(-127.95 -17.046)" fill="#fff"/>
      <path id="Path_11" data-name="Path 11" d="M191.48,25.742V17.3h-.762v7.68l-5.966-7.68H183.8v8.442h.762V18.189l5.84,7.553Z" transform="translate(-98.619 -17.046)" fill="#fff"/>
      <g id="Group_3" data-name="Group 3" transform="translate(69.567 0)">
        <path id="Path_12" data-name="Path 12" d="M166.246,23.946a3.678,3.678,0,0,1-5.2,0,3.636,3.636,0,0,1-1.079-2.666,3.741,3.741,0,0,1,1.079-2.666,3.678,3.678,0,0,1,5.2,0,3.833,3.833,0,0,1,0,5.332m-2.6-7.046a4.211,4.211,0,0,0-3.174,1.269,3.982,3.982,0,0,0-1.269,3.11,4.21,4.21,0,0,0,1.269,3.11,4.461,4.461,0,0,0,3.174,1.269,4.211,4.211,0,0,0,3.174-1.269,3.982,3.982,0,0,0,1.269-3.11,4.21,4.21,0,0,0-1.269-3.11,4.355,4.355,0,0,0-3.174-1.269" transform="translate(-159.2 -16.9)" fill="#fff"/>
      </g>
    </g>
    <path id="Path_13" data-name="Path 13" d="M283.885,17.943a1.143,1.143,0,1,1-1.143-1.143A1.138,1.138,0,0,1,283.885,17.943Zm-1.968,0a.868.868,0,0,0,.889.889.817.817,0,0,0,.825-.889.868.868,0,0,0-.889-.889A.818.818,0,0,0,281.917,17.943Zm.635.571H282.3V17.371c.127,0,.254-.063.444-.063a2.243,2.243,0,0,1,.381.063.33.33,0,0,1,.127.254.273.273,0,0,1-.254.254h0c.127.063.19.127.19.254a1,1,0,0,1,.064.254H283c-.064-.063-.064-.127-.064-.254s-.064-.19-.254-.19h-.127Zm.064-.635h.127c.127,0,.254-.063.254-.19s-.064-.19-.254-.19h-.127Z" transform="translate(-134.342 -16.8)" fill="#fff"/>
  </g>
  <g id="Group_22" data-name="Group 22" transform="translate(14.305 137.766)">
    <g id="Group_21" data-name="Group 21">
      <g id="Group_5" data-name="Group 5">
        <path id="Path_14" data-name="Path 14" d="M166.2,51.43V46.3h2.074a1.521,1.521,0,0,1,1.637,1.528,1.465,1.465,0,0,1-1.637,1.528h-1.419V51.43Zm2.947-3.6a.978.978,0,0,0-.982-.982h-1.31V48.81h1.31A.916.916,0,0,0,169.147,47.828Z" transform="translate(-166.2 -46.3)" fill="#fff"/>
      </g>
      <g id="Group_6" data-name="Group 6" transform="translate(5.348)">
        <path id="Path_15" data-name="Path 15" d="M175.248,51.43l-.437-1.091H172.3l-.437,1.091H171.1l2.074-5.13h.764l2.074,5.13ZM173.5,46.955l-1.091,2.729h2.183Z" transform="translate(-171.1 -46.3)" fill="#fff"/>
      </g>
      <g id="Group_7" data-name="Group 7" transform="translate(12.879)">
        <path id="Path_16" data-name="Path 16" d="M180.947,51.43l-1.31-2.074h-.982V51.43H178V46.3h2.074a1.464,1.464,0,0,1,1.637,1.528,1.541,1.541,0,0,1-1.31,1.528l1.419,2.074Zm0-3.6a.978.978,0,0,0-.982-.982h-1.31V48.81h1.31A.916.916,0,0,0,180.947,47.828Z" transform="translate(-178 -46.3)" fill="#fff"/>
      </g>
      <g id="Group_8" data-name="Group 8" transform="translate(19.101 0.109)">
        <path id="Path_17" data-name="Path 17" d="M185.337,51.421V46.946H183.7V46.4h3.82v.546h-1.637v4.475Z" transform="translate(-183.7 -46.4)" fill="#fff"/>
      </g>
      <g id="Group_9" data-name="Group 9" transform="translate(29.579)">
        <path id="Path_18" data-name="Path 18" d="M193.3,48.92a2.513,2.513,0,1,1,2.51,2.62A2.5,2.5,0,0,1,193.3,48.92Zm4.366,0a1.867,1.867,0,1,0-1.855,2.074A2.033,2.033,0,0,0,197.666,48.92Z" transform="translate(-193.3 -46.3)" fill="#fff"/>
      </g>
      <g id="Group_10" data-name="Group 10" transform="translate(37.547)">
        <path id="Path_19" data-name="Path 19" d="M200.6,51.43V46.3h3.384v.546h-2.729v1.637h2.62v.546h-2.62v2.4Z" transform="translate(-200.6 -46.3)" fill="#fff"/>
      </g>
      <g id="Group_11" data-name="Group 11" transform="translate(45.951)">
        <path id="Path_20" data-name="Path 20" d="M208.3,48.92a2.586,2.586,0,0,1,2.62-2.62,2.476,2.476,0,0,1,1.965.982l-.546.327a1.866,1.866,0,0,0-1.419-.764,2.077,2.077,0,0,0,0,4.148,1.866,1.866,0,0,0,1.419-.764l.546.327a2.32,2.32,0,0,1-1.965.982A2.586,2.586,0,0,1,208.3,48.92Z" transform="translate(-208.3 -46.3)" fill="#fff"/>
      </g>
      <g id="Group_12" data-name="Group 12" transform="translate(53.373)">
        <path id="Path_21" data-name="Path 21" d="M215.1,51.43V46.3h3.384v.546h-2.729v1.637h2.62v.546h-2.62v1.746h2.729v.655Z" transform="translate(-215.1 -46.3)" fill="#fff"/>
      </g>
      <g id="Group_13" data-name="Group 13" transform="translate(59.704 0.109)">
        <path id="Path_22" data-name="Path 22" d="M220.9,49.456V46.4h.655v3.056a1.352,1.352,0,0,0,1.419,1.528c.982,0,1.419-.546,1.419-1.528V46.4h.655v3.056a1.847,1.847,0,0,1-2.074,2.074A1.894,1.894,0,0,1,220.9,49.456Z" transform="translate(-220.9 -46.4)" fill="#fff"/>
      </g>
      <g id="Group_14" data-name="Group 14" transform="translate(66.58 0.109)">
        <path id="Path_23" data-name="Path 23" d="M228.837,51.421V46.946H227.2V46.4h3.82v.546h-1.637v4.475Z" transform="translate(-227.2 -46.4)" fill="#fff"/>
      </g>
      <g id="Group_15" data-name="Group 15" transform="translate(72.255)">
        <path id="Path_24" data-name="Path 24" d="M236.548,51.43l-.437-1.091H233.6l-.437,1.091H232.4l2.074-5.13h.764l2.074,5.13Zm-1.637-4.475-1.091,2.729H236Z" transform="translate(-232.4 -46.3)" fill="#fff"/>
      </g>
      <g id="Group_16" data-name="Group 16" transform="translate(83.607)">
        <path id="Path_25" data-name="Path 25" d="M242.8,48.92a2.521,2.521,0,0,1,2.62-2.62,2.476,2.476,0,0,1,1.965.982l-.546.327a1.832,1.832,0,0,0-1.528-.655,2.077,2.077,0,0,0,0,4.148,2.429,2.429,0,0,0,1.419-.546v-.982h-1.746v-.546h2.4v1.855a2.556,2.556,0,0,1-1.965.873A2.849,2.849,0,0,1,242.8,48.92Z" transform="translate(-242.8 -46.3)" fill="#fff"/>
      </g>
      <g id="Group_17" data-name="Group 17" transform="translate(91.247)">
        <path id="Path_26" data-name="Path 26" d="M252.747,51.43l-1.31-2.074h-.982V51.43H249.8V46.3h2.074a1.519,1.519,0,0,1,1.637,1.528,1.541,1.541,0,0,1-1.31,1.528l1.419,2.074Zm0-3.6a.978.978,0,0,0-.982-.982h-1.31V48.81h1.31A.978.978,0,0,0,252.747,47.828Z" transform="translate(-249.8 -46.3)" fill="#fff"/>
      </g>
      <g id="Group_18" data-name="Group 18" transform="translate(97.578)">
        <path id="Path_27" data-name="Path 27" d="M255.6,48.92a2.513,2.513,0,1,1,2.51,2.62A2.563,2.563,0,0,1,255.6,48.92Zm4.475,0a1.867,1.867,0,1,0-1.856,2.074A2.033,2.033,0,0,0,260.075,48.92Z" transform="translate(-255.6 -46.3)" fill="#fff"/>
      </g>
      <g id="Group_19" data-name="Group 19" transform="translate(105.655 0.109)">
        <path id="Path_28" data-name="Path 28" d="M263,49.456V46.4h.655v3.056a1.352,1.352,0,0,0,1.419,1.528c.982,0,1.419-.546,1.419-1.528V46.4h.655v3.056a1.847,1.847,0,0,1-2.074,2.074A1.894,1.894,0,0,1,263,49.456Z" transform="translate(-263 -46.4)" fill="#fff"/>
      </g>
      <g id="Group_20" data-name="Group 20" transform="translate(112.967)">
        <path id="Path_29" data-name="Path 29" d="M269.7,51.43V46.3h2.074a1.521,1.521,0,0,1,1.637,1.528,1.465,1.465,0,0,1-1.637,1.528h-1.419V51.43Zm2.947-3.6a.978.978,0,0,0-.982-.982h-1.31V48.81h1.31A.916.916,0,0,0,272.647,47.828Z" transform="translate(-269.7 -46.3)" fill="#fff"/>
      </g>
    </g>
  </g>
</svg>
